<svg xmlns="http://www.w3.org/2000/svg" xmlns:xlink="http://www.w3.org/1999/xlink" version="1.1" id="Layer_1" x="0px" y="0px" style="enable-background:new 0 0 600 177.3;" xml:space="preserve" viewBox="1.6 -5.68 597.1 181.68">
<style type="text/css">
	.st0{fill:url(#SVGID_1_);}
	.st1{fill:#6316DB;}
	.st2{fill:#FB2576;}
</style>
<g>
	<g>
		<linearGradient id="SVGID_1_" gradientUnits="userSpaceOnUse" x1="8.8225" y1="171.023" x2="69.9754" y2="119.7096">
			<stop offset="2.964744e-03" style="stop-color:#FB2576"/>
			<stop offset="0.2422" style="stop-color:#F82475"/>
			<stop offset="0.412" style="stop-color:#EF2273"/>
			<stop offset="0.5603" style="stop-color:#DF1E6F"/>
			<stop offset="0.6963" style="stop-color:#C91969"/>
			<stop offset="0.8238" style="stop-color:#AD1361"/>
			<stop offset="0.9434" style="stop-color:#8A0A58"/>
			<stop offset="1" style="stop-color:#770653"/>
		</linearGradient>
		<path class="st0" d="M55.3,94.9L1.6,174.3h47.6l21.6-32c5-7.5,7.6-12.8-1.1-26.2L55.3,94.9z"/>
	</g>
	<g>
		<path class="st1" d="M156.7,15.5h-47.5l-30,44.3l14.4,21.2c8.7,13.3,6,18.7,1.1,26.2L156.7,15.5z"/>
	</g>
	<g>
		<path class="st2" d="M93.5,80.9L49.2,15.5H1.6l68.1,100.6c8.7,13.3,6,18.7,1.1,26.2l1.7-2.6l22.1-32.6    C99.6,99.6,102.3,94.3,93.5,80.9z"/>
	</g>
	<path class="st1" d="M276.8,170.6c-8.2-3.6-13.1-8.5-17.9-14.8c-4.8-6.3-7.4-13.3-8-21.1h34.9c0.4,4.2,2.4,7.6,5.8,10.2   c3.5,2.6,7.7,3.9,12.8,3.9c4.6,0,8.2-0.9,10.7-2.7c2.5-1.8,3.8-4.1,3.8-7c0-3.5-1.8-6-5.4-7.7c-3.6-1.7-9.4-3.5-17.5-5.5   c-8.6-2-15.9-4.1-21.6-6.4c-5.8-2.2-10.7-5.8-14.9-10.6c-4.2-4.8-6.3-11.3-6.3-19.6c0-6.9,1.9-13.2,5.7-18.9   c3.8-5.7,9.4-10.2,16.9-13.5c7.4-3.3,16.2-5,26.5-5c15.1,0,27.1,3.8,35.8,11.2c8.7,7.5,13.7,17.4,15,29.8H319   c-0.6-4.2-2.4-7.5-5.5-9.9c-3.1-2.4-7.2-3.7-12.2-3.7c-4.3,0-7.6,0.8-9.9,2.5c-2.3,1.7-3.5,3.9-3.5,6.8c0,3.5,1.8,6.1,5.5,7.8   c3.7,1.7,9.4,3.5,17.2,5.2c8.9,2.3,16.2,4.6,21.8,6.8c5.6,2.2,10.6,5.8,14.8,10.8c4.3,5,6.4,11.6,6.6,20c0,7.1-2,13.4-5.9,18.9   c-4,5.6-9.7,9.9-17.1,13.1c-7.4,3.2-16,4.8-25.8,4.8C294.4,176,285,174.2,276.8,170.6z"/>
	<path class="st1" d="M386.7,170.6c-8.2-3.6-13.1-8.5-17.9-14.8c-4.8-6.3-7.4-13.3-8-21.1h34.9c0.4,4.2,2.4,7.6,5.8,10.2   c3.5,2.6,7.7,3.9,12.8,3.9c4.6,0,8.2-0.9,10.7-2.7c2.5-1.8,3.8-4.1,3.8-7c0-3.5-1.8-6-5.4-7.7c-3.6-1.7-9.4-3.5-17.5-5.5   c-8.6-2-15.9-4.1-21.6-6.4c-5.8-2.2-10.7-5.8-14.9-10.6c-4.2-4.8-6.3-11.3-6.3-19.6c0-6.9,1.9-13.2,5.7-18.9   c3.8-5.7,9.4-10.2,16.9-13.5c7.4-3.3,16.2-5,26.5-5c15.1,0,27.1,3.8,35.8,11.2c8.7,7.5,13.7,17.4,15,29.8h-34.2   c-0.6-4.2-2.4-7.5-5.5-9.9c-3.1-2.4-7.2-3.7-12.2-3.7c-4.3,0-7.6,0.8-9.9,2.5c-2.3,1.7-3.5,3.9-3.5,6.8c0,3.5,1.8,6.1,5.5,7.8   c3.7,1.7,9.4,3.5,17.2,5.2c8.9,2.3,16.2,4.6,21.8,6.8c5.6,2.2,10.6,5.8,14.8,10.8c4.3,5,6.4,11.6,6.6,20c0,7.1-2,13.4-5.9,18.9   c-4,5.6-9.7,9.9-17.1,13.1c-7.4,3.2-16,4.8-25.8,4.8C404.2,176,394.9,174.2,386.7,170.6z"/>
	<g>
		<rect x="475.3" y="53.6" class="st1" width="34.9" height="120.6"/>
		
			<ellipse transform="matrix(0.9239 -0.3827 0.3827 0.9239 29.4375 190.1633)" class="st1" cx="492.7" cy="21.1" rx="20.5" ry="20.5"/>
	</g>
	<g>
		<path class="st1" d="M589.1,53.6c-15.6,0-33.6,6-46.2,18.9c-13.9,14.3-19,30.7-19,45.7v56h34.9v-56c0-9.9,4.4-16.8,8.7-21    c4.4-4.3,10.6-8.7,21-8.7h10.2V53.6H589.1z"/>
	</g>
	<path class="st1" d="M180.8,52.8c-34.2,0-61.2,27-61.2,61.2c0,33.8,25.6,60.3,60.4,60.3h2.9l23.3-34.4h-19.2   c-9.7,0-19.2-2.6-24.3-7.7c-4.7-4.7-7.8-11.1-7.8-18.2c0-14.8,11.2-25.9,25.9-25.9c14.8,0,26,11.2,26,25.9v60.3h35.2v-60.3   C241.9,79.7,214.9,52.8,180.8,52.8z"/>
</g>
</svg>